<?xml version="1.0" encoding="iso-8859-1"?>
<!-- Generator: Adobe Illustrator 19.0.0, SVG Export Plug-In . SVG Version: 6.00 Build 0)  -->
<svg version="1.1" id="Layer_1" xmlns="http://www.w3.org/2000/svg" xmlns:xlink="http://www.w3.org/1999/xlink" x="0px" y="0px"
	 viewBox="0 0 512 512" style="enable-background:new 0 0 512 512;" xml:space="preserve">
<g>
	<rect x="77.812" y="193.564" style="fill:#CFF09E;" width="118.787" height="116.703"/>
	<rect x="196.599" y="310.266" style="fill:#CFF09E;" width="118.787" height="116.703"/>
	<rect x="315.401" y="310.266" style="fill:#CFF09E;" width="118.787" height="116.703"/>
</g>
<g>
	<path style="fill:#507C5C;" d="M434.188,258.594c8.595,0,15.562-6.967,15.562-15.562v-49.468c0-8.595-6.967-15.562-15.562-15.562
		H315.397H196.605H77.812c-8.595,0-15.562,6.967-15.562,15.562v116.703c0,8.595,6.967,15.562,15.562,15.562h103.229v85.577H93.374
		v-39.675c0-8.595-6.967-15.562-15.562-15.562s-15.562,6.967-15.562,15.562v55.237c0,8.595,6.967,15.562,15.562,15.562h118.792
		h118.792h118.793c8.595,0,15.562-6.967,15.562-15.562V310.267c0-8.595-6.967-15.562-15.562-15.562H330.959v-85.579h87.667v33.906
		C418.626,251.625,425.593,258.594,434.188,258.594z M299.834,294.705h-87.667v-85.579h87.667L299.834,294.705L299.834,294.705z
		 M93.374,209.126h87.667v85.579H93.374V209.126z M212.166,325.83h87.667v85.577h-87.667L212.166,325.83L212.166,325.83z
		 M418.626,411.407h-87.667V325.83h87.667V411.407z"/>
	<path style="fill:#507C5C;" d="M496.438,147.084c8.595,0,15.562-6.967,15.562-15.562V53.69c0-8.595-6.967-15.562-15.562-15.562
		h-87.149V22.575c0-8.595-6.967-15.562-15.562-15.562c-8.595,0-15.562,6.967-15.562,15.562v15.553H133.836V22.575
		c0-8.595-6.967-15.562-15.562-15.562s-15.562,6.967-15.562,15.562v15.553H15.562C6.967,38.128,0,45.095,0,53.69v77.832v357.904
		c0,8.595,6.967,15.562,15.562,15.562h480.875c8.595,0,15.562-6.967,15.562-15.562V193.564c0-8.595-6.967-15.562-15.562-15.562
		c-8.595,0-15.562,6.967-15.562,15.562v280.299H31.125V147.084h362.602c8.595,0,15.562-6.967,15.562-15.562
		s-6.967-15.562-15.562-15.562H31.125V69.252h71.587v7.781c0,8.595,6.967,15.562,15.562,15.562s15.562-6.967,15.562-15.562v-7.781
		h244.328v7.781c0,8.595,6.967,15.562,15.562,15.562c8.595,0,15.562-6.967,15.562-15.562v-7.781h71.587v62.269
		C480.875,140.117,487.843,147.084,496.438,147.084z"/>
</g>
<g>
</g>
<g>
</g>
<g>
</g>
<g>
</g>
<g>
</g>
<g>
</g>
<g>
</g>
<g>
</g>
<g>
</g>
<g>
</g>
<g>
</g>
<g>
</g>
<g>
</g>
<g>
</g>
<g>
</g>
</svg>
