<svg xmlns="http://www.w3.org/2000/svg" width="10.679" height="20.024" viewBox="0 0 10.679 20.024">
  <g id="Layer_2" data-name="Layer 2" transform="translate(-8 -1)">
    <path id="Path_75427" data-name="Path 75427" d="M13.314,18.847h0a.667.667,0,0,1-.107-.934l1.735-2.189H13l1.535-3.337a.667.667,0,0,1,.888-.327h0a.667.667,0,0,1,.327.888l-.667,1.408h2.59l-3.444,4.352a.667.667,0,0,1-.914.14Z" transform="translate(-1.663 -3.657)" fill="#0f123f"/>
    <rect id="Rectangle_3352" data-name="Rectangle 3352" width="1.335" height="2.67" rx="0.667" transform="translate(8 10.598)" fill="#0f123f"/>
    <path id="Path_75428" data-name="Path 75428" d="M16.871,3.67V2.655A1.655,1.655,0,0,0,15.215,1H11.464A1.655,1.655,0,0,0,9.809,2.655V3.67A1.876,1.876,0,0,0,8,5.545V8.469a.667.667,0,0,0,.667.667h0a.667.667,0,0,0,.667-.667V5.545A.541.541,0,0,1,9.876,5H16.8a.541.541,0,0,1,.541.541v13.6a.541.541,0,0,1-.541.541H9.876a.541.541,0,0,1-.541-.541V15.39a.667.667,0,0,0-.667-.667h0A.667.667,0,0,0,8,15.39v3.758a1.876,1.876,0,0,0,1.876,1.876H16.8a1.876,1.876,0,0,0,1.876-1.876V5.545A1.876,1.876,0,0,0,16.871,3.67Zm-1.335,0H11.144V2.655a.32.32,0,0,1,.32-.32h3.751a.32.32,0,0,1,.32.32Z" transform="translate(0)" fill="#0f123f"/>
  </g>
</svg>
