<svg xmlns="http://www.w3.org/2000/svg" width="26.613" height="12.353" viewBox="0 0 26.613 12.353">
  <path id="bus_1_" d="M26.414-5.9,25.043-8.912a3.033,3.033,0,0,0-2.75-1.756H2.63A2.626,2.626,0,0,0,0-8.052v6.537A1.438,1.438,0,0,0,1.441-.082H3.593A2.215,2.215,0,0,0,5.766,1.685,2.215,2.215,0,0,0,7.94-.082H18.674a2.215,2.215,0,0,0,2.173,1.767A2.215,2.215,0,0,0,23.021-.082h2.36a1.234,1.234,0,0,0,1.184-.882,1.263,1.263,0,0,0,.049-.344V-4.991a2.2,2.2,0,0,0-.2-.913Zm-24.2.529a.442.442,0,0,1-.444-.441V-9.345a.442.442,0,0,1,.444-.441h3.1a.442.442,0,0,1,.444.441v3.529a.442.442,0,0,1-.444.441ZM5.766.8A1.327,1.327,0,0,1,4.436-.523,1.327,1.327,0,0,1,5.766-1.846,1.327,1.327,0,0,1,7.1-.523,1.331,1.331,0,0,1,5.766.8Zm4.879-6.617a.442.442,0,0,1-.444.441H7.1a.442.442,0,0,1-.444-.441V-9.345A.442.442,0,0,1,7.1-9.786h3.1a.442.442,0,0,1,.444.441Zm4.879,0a.442.442,0,0,1-.444.441h-3.1a.442.442,0,0,1-.444-.441V-9.345a.442.442,0,0,1,.444-.441h3.1a.442.442,0,0,1,.444.441Zm1.331.441a.442.442,0,0,1-.444-.441V-9.345a.442.442,0,0,1,.444-.441h3.1a.442.442,0,0,1,.444.441v3.529a.442.442,0,0,1-.444.441ZM20.847.8A1.327,1.327,0,0,1,19.516-.523a1.327,1.327,0,0,1,1.331-1.323A1.327,1.327,0,0,1,22.178-.523,1.331,1.331,0,0,1,20.847.8ZM21.7-5.375a.446.446,0,0,1-.408-.441V-9.348a.439.439,0,0,1,.44-.437h.563a2.147,2.147,0,0,1,1.943,1.24l1.371,3.008a1.281,1.281,0,0,1,.115.5Zm0,0" transform="translate(0 10.668)" fill="#0f123f"/>
</svg>
