<svg xmlns="http://www.w3.org/2000/svg" width="108.221" height="50.812" viewBox="0 0 108.221 50.812">
  <path id="bus_1_" d="M105.425,8.156,99.954-3.731a12.115,12.115,0,0,0-10.977-6.937H10.5A10.429,10.429,0,0,0,0-.331V25.5a5.71,5.71,0,0,0,5.754,5.665H14.34a8.88,8.88,0,0,0,17.349,0H74.532a8.88,8.88,0,0,0,17.349,0H101.3a4.845,4.845,0,0,0,4.921-4.845V11.765a8.6,8.6,0,0,0-.8-3.609ZM8.852,10.248A1.757,1.757,0,0,1,7.081,8.5V-5.439a1.757,1.757,0,0,1,1.77-1.743H21.244a1.757,1.757,0,0,1,1.77,1.743V8.5a1.757,1.757,0,0,1-1.77,1.743Zm14.163,24.4a5.23,5.23,0,1,1,5.311-5.229A5.271,5.271,0,0,1,23.015,34.65ZM42.488,8.5a1.757,1.757,0,0,1-1.77,1.743H28.326A1.757,1.757,0,0,1,26.555,8.5V-5.439a1.757,1.757,0,0,1,1.77-1.743H40.718a1.757,1.757,0,0,1,1.77,1.743Zm19.474,0a1.757,1.757,0,0,1-1.77,1.743H47.8A1.757,1.757,0,0,1,46.029,8.5V-5.439A1.757,1.757,0,0,1,47.8-7.182H60.192a1.757,1.757,0,0,1,1.77,1.743Zm5.311,1.743A1.757,1.757,0,0,1,65.5,8.5V-5.439a1.757,1.757,0,0,1,1.77-1.743H79.666a1.757,1.757,0,0,1,1.77,1.743V8.5a1.757,1.757,0,0,1-1.77,1.743Zm15.933,24.4a5.23,5.23,0,1,1,5.311-5.229A5.271,5.271,0,0,1,83.207,34.65Zm3.4-24.4A1.771,1.771,0,0,1,84.977,8.5V-5.454a1.742,1.742,0,0,1,1.755-1.728h2.245a8.576,8.576,0,0,1,7.755,4.9L102.2,9.6a5.022,5.022,0,0,1,.461,1.969Zm0,0" transform="translate(1 11.668)" fill="none" stroke="#14ae39" stroke-width="2"/>
</svg>
