<svg xmlns="http://www.w3.org/2000/svg" xmlns:xlink="http://www.w3.org/1999/xlink" viewBox="0 0 684.94 156.74"><defs><style>.cls-1{fill-rule:evenodd;fill:url(#GradientFill_1);}</style><linearGradient id="GradientFill_1" x1="180.04" y1="219" x2="180.04" y2="371.12" gradientUnits="userSpaceOnUse"><stop offset="0" stop-color="#85c446"/><stop offset="1" stop-color="#2b7434"/></linearGradient></defs><title>logo [Converted]</title><path class="cls-1" d="M174,218.49h0c20.59,0,37.82,8,49.3,21.15a6.39,6.39,0,0,1-.29,8.74l-54.29,54.29a6.42,6.42,0,0,1-9,0l-18.46-18.46a6.41,6.41,0,0,0-9.06,0l-12,12.05a6.42,6.42,0,0,0,0,9.05l23,23,16.57,16.56a6.43,6.43,0,0,0,9.05,0c22.65-22.61,45.43-45.09,67.91-67.88a6.17,6.17,0,0,1,4.55-1.91h33.48A6.4,6.4,0,0,1,281,282.7l-3.31,17a6.33,6.33,0,0,1-6.28,5.18H235.61L223,370.06a6.35,6.35,0,0,1-6.28,5.17h-73.1c-43.1,0-71.51-35.26-63.13-78.37h0C88.82,253.76,130.94,218.49,174,218.49Z" transform="translate(-78.97 -218.49)"/><path d="M364.26,266.29H332.81c-3.39,0-5.86.63-7.44,1.9s-2.37,3.26-2.37,6a6,6,0,0,0,2,4.95c1.34,1.09,3.35,1.64,6,1.64h16.86q10.46,0,14.88,4c2.95,2.65,4.43,7,4.43,13.19s-1.7,10.8-5.1,13.73S353.33,316,346,316H312.13V305.24H344c3.63,0,6.17-.53,7.66-1.59s2.22-2.8,2.22-5.24-.67-4.33-2-5.4-3.68-1.6-7-1.6h-15q-10.45,0-15.29-4.18T309.7,274q0-9.66,5.09-14.1T331,255.5h33.31Z" transform="translate(-78.97 -218.49)"/><rect x="294.79" y="87" width="10.13" height="10.54"/><path d="M418.41,265.83q-7.91,0-11.39,5t-3.48,16.52q0,9.94,3.33,14t11.54,4.07h20.91V316H417.79a41.26,41.26,0,0,1-11.2-1.2A22.92,22.92,0,0,1,392,301.06a38.83,38.83,0,0,1-2.33-14.22q0-16.06,7-23.71t21.57-7.63h21.17v10.33Z" transform="translate(-78.97 -218.49)"/><rect x="366.73" y="87" width="10.13" height="10.54"/><polygon points="419.06 37.01 435.17 37.01 459.94 80.49 459.33 37.01 472.34 37.01 472.34 97.54 457.55 97.54 431.54 51.75 432.11 97.54 419.06 97.54 419.06 37.01"/><path d="M583,307.26a10.25,10.25,0,0,0,8.25-3.54c2-2.36,3-5.65,3-9.88s-1-7.52-3-9.87a10.28,10.28,0,0,0-8.27-3.51v-9.64h.05q10.71,0,17.12,6.28t6.4,16.74q0,10.46-6.37,16.7t-17.15,6.24H583Zm-11.26-13.42q0,6.35,3,9.88a10.2,10.2,0,0,0,8.28,3.54h0v9.52q-10.74,0-17.15-6.26t-6.43-16.68q0-10.45,6.43-16.74T583,270.82v9.64h0a10.23,10.23,0,0,0-8.26,3.54Q571.79,287.54,571.78,293.84Z" transform="translate(-78.97 -218.49)"/><path d="M613.77,271.6h19.72q6.91,0,9.7,2.49c1.86,1.66,2.78,4.57,2.78,8.7v7.42h-11.2v-5.72q0-2.6-.93-3.48c-.61-.59-2-.89-4.21-.89h-4.12V316H613.77Z" transform="translate(-78.97 -218.49)"/><path d="M682.88,306.52V281.2H675.8a28.22,28.22,0,0,0-3,.16V271.6h10.09V255.5h11.7V316H672.79v-9.59c.66.05,1.34.08,2.07.08Zm-10.09-25.16q-4.78.52-7.11,2.82-3,3-3,10,0,6.74,2.74,9.55,2.29,2.37,7.35,2.75V316h-.74q-10.21,0-15.94-6t-5.72-16.76a26.05,26.05,0,0,1,1.19-8.09,21.22,21.22,0,0,1,3.63-6.73,16.22,16.22,0,0,1,6.94-5.25,30,30,0,0,1,10.64-1.59Z" transform="translate(-78.97 -218.49)"/><path d="M717.08,266.54H704.77v-11h12.31v11Zm0,49.49H704.77V271.6h12.31Z" transform="translate(-78.97 -218.49)"/><path d="M751.43,306.52h12.48V316H748a33.1,33.1,0,0,1-9.93-1.25,17,17,0,0,1-6.78-4.06,21.25,21.25,0,0,1-4.83-7.43,24.78,24.78,0,0,1-1.76-9.28,26.45,26.45,0,0,1,1.73-9.61,20.21,20.21,0,0,1,4.86-7.48,17.34,17.34,0,0,1,6.86-4.06A33,33,0,0,1,748,271.6h15.94v9.6H751.43c-5.51,0-9.32,1-11.4,2.87s-3.13,5.22-3.13,9.94a15.57,15.57,0,0,0,1.28,6.75,10,10,0,0,0,4,4.31,9.35,9.35,0,0,0,3.06,1.13A41,41,0,0,0,751.43,306.52Z" transform="translate(-78.97 -218.49)"/><path d="M326.42,333h-9.64a3.65,3.65,0,0,0-2.27.58,2.2,2.2,0,0,0-.73,1.84,1.85,1.85,0,0,0,.62,1.52,2.89,2.89,0,0,0,1.84.5h5.16c2.13,0,3.65.41,4.56,1.21a6.57,6.57,0,0,1-.21,8.24q-1.56,1.35-4.92,1.35H310.45v-3.31h9.76a4.17,4.17,0,0,0,2.35-.49,1.83,1.83,0,0,0,.68-1.6,2,2,0,0,0-.62-1.65,3.52,3.52,0,0,0-2.14-.5h-4.61a7.09,7.09,0,0,1-4.68-1.27,5.09,5.09,0,0,1-1.48-4,5.45,5.45,0,0,1,1.55-4.31q1.56-1.37,5-1.36h10.2Z" transform="translate(-78.97 -218.49)"/><path d="M329.87,334.61h13.8a6.47,6.47,0,0,1,4.32,1.17,4.86,4.86,0,0,1,1.32,3.81v8.63h-3.62v-8.17a3.08,3.08,0,0,0-.45-2,2.67,2.67,0,0,0-1.87-.47h-2v10.62h-3.67V337.6h-4.2v10.62h-3.62Z" transform="translate(-78.97 -218.49)"/><path d="M358.86,345.48h3.23v-2.81h-3.23V340h3.2v-.34a2,2,0,0,0-.71-1.71,4.66,4.66,0,0,0-2.49-.49v-2.81h1.31a6.08,6.08,0,0,1,4.2,1.28,4.87,4.87,0,0,1,1.41,3.8v8.53h-6.92Zm-1.28,0h1.28v2.74h-2.74a4.38,4.38,0,0,1-3.12-1,3.79,3.79,0,0,1-1.09-2.91,4,4,0,0,1,1.25-3.33,6.76,6.76,0,0,1,4.17-1h1.53v2.71h-1a3.22,3.22,0,0,0-1.75.34,1.35,1.35,0,0,0-.47,1.18,1.15,1.15,0,0,0,.38,1,2.9,2.9,0,0,0,1.57.29Zm1.28-10.87v2.81H352.8v-2.81Z" transform="translate(-78.97 -218.49)"/><path d="M368.92,334.61h6a4.47,4.47,0,0,1,3,.76,3.46,3.46,0,0,1,.85,2.67v2.27h-3.43v-1.75a1.54,1.54,0,0,0-.28-1.07,2.06,2.06,0,0,0-1.3-.27h-1.26v11h-3.59Z" transform="translate(-78.97 -218.49)"/><path d="M379.71,334.61h2.54v-4.93h3.59v4.93h3.8v2.71h-3.8v5.5a3.25,3.25,0,0,0,.52,2.1,2.33,2.33,0,0,0,1.8.58h1.48v2.72h-3.28a4,4,0,0,1-3.05-1.11,4.36,4.36,0,0,1-1.06-3.16v-6.63h-2.54Z" transform="translate(-78.97 -218.49)"/><path d="M397.82,348.22a7,7,0,0,1-5.11-1.73,6.82,6.82,0,0,1-1.73-5.07,6.93,6.93,0,0,1,1.73-5.09,7,7,0,0,1,5.11-1.72h5.25v2.84h-4.76a4.38,4.38,0,0,0-2.62.55,2.64,2.64,0,0,0-.73,2h8.11v2.83H395a2.7,2.7,0,0,0,.68,2,4.37,4.37,0,0,0,2.65.54h4.78v2.84Z" transform="translate(-78.97 -218.49)"/><path d="M405.36,334.61h6a4.47,4.47,0,0,1,3,.76,3.46,3.46,0,0,1,.85,2.67v2.27h-3.43v-1.75a1.49,1.49,0,0,0-.28-1.07,2,2,0,0,0-1.29-.27H409v11h-3.6Z" transform="translate(-78.97 -218.49)"/><path d="M435.52,332.84a3.93,3.93,0,0,0-3.49,1.54c-.71,1-1.07,2.71-1.07,5.06,0,2,.34,3.46,1,4.3a4.37,4.37,0,0,0,3.54,1.25h6.4v3.23h-6.59a12.8,12.8,0,0,1-3.43-.37,7,7,0,0,1-4.48-4.22,11.83,11.83,0,0,1-.72-4.35q0-4.92,2.13-7.27c1.42-1.55,3.63-2.33,6.61-2.33h6.48v3.16Z" transform="translate(-78.97 -218.49)"/><path d="M450.73,345.53a3.15,3.15,0,0,0,2.53-1.08,5.46,5.46,0,0,0,0-6.05,3.15,3.15,0,0,0-2.54-1.08v-2.95h0a7.18,7.18,0,0,1,5.24,1.92,7.68,7.68,0,0,1,0,10.24,7.15,7.15,0,0,1-5.25,1.91h0Zm-3.45-4.11a4.59,4.59,0,0,0,.91,3,3.13,3.13,0,0,0,2.54,1.08h0v2.91a7.22,7.22,0,0,1-5.25-1.91,7.64,7.64,0,0,1,0-10.24,7.19,7.19,0,0,1,5.25-1.92v2.95h0a3.14,3.14,0,0,0-2.54,1.09A4.56,4.56,0,0,0,447.28,341.42Z" transform="translate(-78.97 -218.49)"/><path d="M460.14,334.61h6.77c2,0,3.5.38,4.37,1.15a4.9,4.9,0,0,1,1.31,3.83v8.63H469V340a1.9,1.9,0,0,0-2.37-2.43h-2.89v10.62h-3.6Z" transform="translate(-78.97 -218.49)"/><path d="M475.43,345.38H483a2.68,2.68,0,0,0,1.47-.31,1.15,1.15,0,0,0,.46-1,1.12,1.12,0,0,0-.47-1,2.65,2.65,0,0,0-1.46-.32h-3.1c-1.84,0-3.08-.28-3.74-.84a3.89,3.89,0,0,1-1-3,4.1,4.1,0,0,1,1.17-3.23,5.37,5.37,0,0,1,3.63-1h7.72v2.84h-6.35a4.73,4.73,0,0,0-2,.27,1,1,0,0,0-.47,1,1.08,1.08,0,0,0,.41.93,2.21,2.21,0,0,0,1.29.3h3.26a5,5,0,0,1,3.4,1,3.81,3.81,0,0,1,1.18,3,4.46,4.46,0,0,1-1.05,3.08,3.41,3.41,0,0,1-2.68,1.19h-9.28Z" transform="translate(-78.97 -218.49)"/><path d="M503.32,348.22h-6.78a6.43,6.43,0,0,1-4.32-1.19,4.87,4.87,0,0,1-1.33-3.79v-8.63h3.58V343a2.5,2.5,0,0,0,.48,1.81,2.74,2.74,0,0,0,1.88.46h2.89V334.61h3.6Z" transform="translate(-78.97 -218.49)"/><path d="M506.54,334.61h13.8a6.47,6.47,0,0,1,4.32,1.17,4.86,4.86,0,0,1,1.33,3.81v8.63h-3.62v-8.17a3.07,3.07,0,0,0-.46-2,2.67,2.67,0,0,0-1.87-.47h-2v10.62h-3.67V337.6h-4.2v10.62h-3.62Z" transform="translate(-78.97 -218.49)"/><path d="M535.26,348.22a7,7,0,0,1-5.11-1.73,8.29,8.29,0,0,1,0-10.16,7,7,0,0,1,5.11-1.72h5.25v2.84h-4.76a4.4,4.4,0,0,0-2.63.55,2.6,2.6,0,0,0-.72,2h8.11v2.83H532.4a2.66,2.66,0,0,0,.68,2,4.37,4.37,0,0,0,2.65.54h4.78v2.84Z" transform="translate(-78.97 -218.49)"/><path d="M542.8,334.61h6a4.47,4.47,0,0,1,3,.76,3.46,3.46,0,0,1,.85,2.67v2.27h-3.43v-1.75a1.49,1.49,0,0,0-.28-1.07,2,2,0,0,0-1.29-.27h-1.27v11H542.8Z" transform="translate(-78.97 -218.49)"/><path d="M554.73,345.38h7.58a2.68,2.68,0,0,0,1.47-.31,1.17,1.17,0,0,0,.46-1,1.14,1.14,0,0,0-.47-1,2.65,2.65,0,0,0-1.46-.32h-3.1c-1.84,0-3.09-.28-3.74-.84a3.89,3.89,0,0,1-1-3,4.11,4.11,0,0,1,1.18-3.23,5.37,5.37,0,0,1,3.63-1H567v2.84h-6.35a4.82,4.82,0,0,0-2,.27,1,1,0,0,0-.46,1,1.08,1.08,0,0,0,.41.93,2.19,2.19,0,0,0,1.29.3h3.25a5,5,0,0,1,3.41,1,3.81,3.81,0,0,1,1.17,3,4.5,4.5,0,0,1-1,3.08,3.41,3.41,0,0,1-2.68,1.19h-9.28Z" transform="translate(-78.97 -218.49)"/><path d="M584.06,333.06h-3.77v-3.38h3.77v3.38Zm0,15.16h-3.77V334.61h3.77Z" transform="translate(-78.97 -218.49)"/><path d="M587.16,334.61h6.77c2,0,3.5.38,4.37,1.15a4.9,4.9,0,0,1,1.31,3.83v8.63H596V340a1.9,1.9,0,0,0-2.37-2.43h-2.89v10.62h-3.6Z" transform="translate(-78.97 -218.49)"/><path d="M611.32,334.61h2.53v-4.93h3.6v4.93h3.8v2.71h-3.8v5.5a3.25,3.25,0,0,0,.51,2.1,2.34,2.34,0,0,0,1.81.58h1.48v2.72H618a4,4,0,0,1-3.05-1.11,4.4,4.4,0,0,1-1.06-3.16v-6.63h-2.53Z" transform="translate(-78.97 -218.49)"/><path d="M623.36,329.68h3.57v4.93h3.19a6.47,6.47,0,0,1,4.34,1.18,4.79,4.79,0,0,1,1.35,3.8v8.63h-3.62V340a2,2,0,0,0-2.4-2.41h-2.86v10.62h-3.57Z" transform="translate(-78.97 -218.49)"/><path d="M645,348.22a7,7,0,0,1-5.12-1.73,8.3,8.3,0,0,1,0-10.16,7,7,0,0,1,5.11-1.72h5.24v2.84h-4.75a4.4,4.4,0,0,0-2.63.55,2.64,2.64,0,0,0-.73,2h8.11v2.83h-8.11a2.7,2.7,0,0,0,.68,2,4.39,4.39,0,0,0,2.66.54h4.77v2.84Z" transform="translate(-78.97 -218.49)"/><polygon points="583.91 111.18 588.84 111.18 596.43 124.5 596.24 111.18 600.23 111.18 600.23 129.72 595.7 129.72 587.73 115.7 587.91 129.72 583.91 129.72 583.91 111.18"/><path d="M688.92,345.53a3.13,3.13,0,0,0,2.52-1.08,5.46,5.46,0,0,0,0-6.05,3.15,3.15,0,0,0-2.53-1.08v-2.95h0a7.19,7.19,0,0,1,5.25,1.92,7.7,7.7,0,0,1,0,10.24,7.12,7.12,0,0,1-5.25,1.91h0Zm-3.45-4.11a4.59,4.59,0,0,0,.91,3,3.12,3.12,0,0,0,2.53,1.08h0v2.91a7.23,7.23,0,0,1-5.26-1.91,7.67,7.67,0,0,1,0-10.24,7.2,7.2,0,0,1,5.26-1.92v2.95h0a3.11,3.11,0,0,0-2.53,1.09A4.51,4.51,0,0,0,685.47,341.42Z" transform="translate(-78.97 -218.49)"/><path d="M698.33,334.61h6a4.47,4.47,0,0,1,3,.76,3.46,3.46,0,0,1,.85,2.67v2.27h-3.43v-1.75a1.49,1.49,0,0,0-.28-1.07,2,2,0,0,0-1.29-.27h-1.27v11h-3.59Z" transform="translate(-78.97 -218.49)"/><path d="M719.5,345.3v-7.75h-2.17a6.63,6.63,0,0,0-.92.05v-3h3.09v-4.93h3.58v18.54h-6.67v-2.94l.63,0Zm-3.09-7.7a3.51,3.51,0,0,0-2.18.86,4.21,4.21,0,0,0-.91,3.05,4.14,4.14,0,0,0,.83,2.93,3.44,3.44,0,0,0,2.26.84v2.94h-.23a6.41,6.41,0,0,1-4.88-1.85,7.11,7.11,0,0,1-1.76-5.13,8.16,8.16,0,0,1,.37-2.48A6.86,6.86,0,0,1,711,336.7a4.94,4.94,0,0,1,2.13-1.6,8.92,8.92,0,0,1,3.26-.49Z" transform="translate(-78.97 -218.49)"/><path d="M730,333.06H726.2v-3.38H730v3.38Zm0,15.16H726.2V334.61H730Z" transform="translate(-78.97 -218.49)"/><path d="M740.49,345.3h3.82v2.92h-4.88a9.94,9.94,0,0,1-3-.39,5.18,5.18,0,0,1-2.08-1.24,6.57,6.57,0,0,1-1.48-2.28,7.71,7.71,0,0,1-.54-2.84,8.12,8.12,0,0,1,.53-2.94,6.23,6.23,0,0,1,1.49-2.29,5.35,5.35,0,0,1,2.1-1.25,10.29,10.29,0,0,1,3-.38h4.88v2.94h-3.82a5.2,5.2,0,0,0-3.49.88,4,4,0,0,0-1,3,4.84,4.84,0,0,0,.39,2.07,3.13,3.13,0,0,0,1.21,1.32,2.91,2.91,0,0,0,.94.34A11.73,11.73,0,0,0,740.49,345.3Z" transform="translate(-78.97 -218.49)"/><rect x="667.17" y="111.59" width="2.43" height="7.05"/><path d="M750.91,345.38h7.57a2.63,2.63,0,0,0,1.47-.31,1.15,1.15,0,0,0,.46-1,1.13,1.13,0,0,0-.46-1,2.69,2.69,0,0,0-1.47-.32h-3.1c-1.84,0-3.08-.28-3.73-.84a3.85,3.85,0,0,1-1-3,4.1,4.1,0,0,1,1.17-3.23,5.37,5.37,0,0,1,3.63-1h7.72v2.84h-6.34a4.76,4.76,0,0,0-2,.27,1,1,0,0,0-.47,1,1.08,1.08,0,0,0,.41.93,2.23,2.23,0,0,0,1.29.3h3.26a5,5,0,0,1,3.4,1,3.78,3.78,0,0,1,1.18,3,4.5,4.5,0,0,1-1,3.08,3.43,3.43,0,0,1-2.69,1.19h-9.27Z" transform="translate(-78.97 -218.49)"/></svg>