<svg width="17" height="18" xmlns="http://www.w3.org/2000/svg"  viewBox="19 126 17 18"><svg width="17" height="18" xmlns="http://www.w3.org/2000/svg" viewBox="0 0.495 17 17.009" fill="#0f123f" x="19" y="126"><svg xmlns="http://www.w3.org/2000/svg" xmlns:xlink="http://www.w3.org/1999/xlink" width="17" height="18" viewBox="0 0.5 16.991 17"><path paint-order="stroke fill markers" fill-rule="evenodd" d="M16.283 8.291a.708.708 0 0 0-.709.708 7.107 7.107 0 1 1-2.054-4.973.592.592 0 0 1-.07.015h-2.125a.708.708 0 0 0 0 1.417h2.125a2.125 2.125 0 0 0 2.124-2.125V1.208a.708.708 0 0 0-1.416 0v1.463a8.495 8.495 0 1 0 2.833 6.328.708.708 0 0 0-.708-.708z"/></svg></svg><svg width="5" height="8" xmlns="http://www.w3.org/2000/svg" xmlns:xlink="http://www.w3.org/1999/xlink" xmlns:svgjs="http://svgjs.com/svgjs" viewBox="0.5 0 4 8" fill="#0f123f" x="26" y="130"><svg xmlns="http://www.w3.org/2000/svg" width="5" height="8" viewBox="0.783 0.75 3.541 7.083"><path paint-order="stroke fill markers" fill-rule="evenodd" d="M1.492.75a.708.708 0 0 0-.709.708v3.541c0 .188.075.368.208.5l2.125 2.126a.708.708 0 1 0 1.001-1.002L2.2 4.706V1.458A.708.708 0 0 0 1.492.75z"/></svg></svg></svg>