<svg xmlns="http://www.w3.org/2000/svg" width="16.991" height="17" viewBox="0 0 16.991 17">
  <g id="fi-rr-time-forward" transform="translate(-0.011)">
    <path id="Path_278" data-name="Path 278" d="M16.294,7.791a.708.708,0,0,0-.708.708,7.107,7.107,0,1,1-2.054-4.973.611.611,0,0,1-.071.015H11.336a.708.708,0,1,0,0,1.417h2.125a2.125,2.125,0,0,0,2.125-2.125V.708a.708.708,0,0,0-1.417,0V2.171A8.5,8.5,0,1,0,17,8.5.708.708,0,0,0,16.294,7.791Z" fill="#0f123f"/>
    <path id="Path_279" data-name="Path 279" d="M11.708,6A.708.708,0,0,0,11,6.708V10.25a.708.708,0,0,0,.207.5l2.125,2.125a.708.708,0,1,0,1-1L12.417,9.956V6.708A.708.708,0,0,0,11.708,6Z" transform="translate(-3.206 -1.75)" fill="#0f123f"/>
  </g>
</svg>
