<svg xmlns="http://www.w3.org/2000/svg" xmlns:xlink="http://www.w3.org/1999/xlink" width="232.689" height="35.697" viewBox="0 0 232.689 35.697">
  <defs>
    <linearGradient id="linear-gradient" x1="0.5" y1="0.003" x2="0.5" y2="0.974" gradientUnits="objectBoundingBox">
      <stop offset="0" stop-color="#85c446"/>
      <stop offset="1" stop-color="#2b7434"/>
    </linearGradient>
  </defs>
  <g id="logo_SVG" data-name="logo SVG" transform="translate(-30.4 -14.213)">
    <path id="Path_1" data-name="Path 1" d="M100.645,218.49h0a14.574,14.574,0,0,1,11.223,4.815,1.455,1.455,0,0,1-.066,1.99L99.443,237.653a1.461,1.461,0,0,1-2.049,0l-4.2-4.2a1.459,1.459,0,0,0-2.062,0L88.4,236.194a1.461,1.461,0,0,0,0,2.06l5.236,5.236,3.772,3.77a1.464,1.464,0,0,0,2.06,0c5.156-5.147,10.342-10.265,15.459-15.453a1.4,1.4,0,0,1,1.036-.435h7.622a1.457,1.457,0,0,1,1.42,1.735l-.754,3.87a1.441,1.441,0,0,1-1.43,1.179h-8.15L111.8,252.994a1.446,1.446,0,0,1-1.43,1.177H93.729c-9.812,0-16.279-8.027-14.371-17.841h0C81.254,226.519,90.842,218.49,100.645,218.49Z" transform="translate(-48.624 -204.261)" fill-rule="evenodd" fill="url(#linear-gradient)"/>
    <path id="Path_2" data-name="Path 2" d="M330.653,259.644H318.575a4.534,4.534,0,0,0-2.857.73,2.776,2.776,0,0,0-.91,2.3,2.3,2.3,0,0,0,.768,1.9,3.6,3.6,0,0,0,2.3.63h6.475q4.017,0,5.714,1.536c1.133,1.018,1.7,2.688,1.7,5.065s-.653,4.148-1.959,5.273-3.357,1.651-6.172,1.651H310.633V274.6h12.239a5.26,5.26,0,0,0,2.942-.611,2.292,2.292,0,0,0,.853-2.012,2.562,2.562,0,0,0-.768-2.074,4.414,4.414,0,0,0-2.688-.615H317.45q-4.013,0-5.872-1.605T309.7,262.6q0-3.71,1.955-5.415t6.225-1.69h12.792Z" transform="translate(-221.057 -241.287)"/>
    <rect id="Rectangle_1" data-name="Rectangle 1" width="3.89" height="4.048" transform="translate(113.244 33.411)"/>
    <path id="Path_3" data-name="Path 3" d="M400.7,259.467a4.95,4.95,0,0,0-4.374,1.92q-1.336,1.92-1.336,6.344,0,3.817,1.279,5.377t4.432,1.563h8.03v4.063h-8.268a15.845,15.845,0,0,1-4.3-.461,8.8,8.8,0,0,1-5.6-5.277,14.913,14.913,0,0,1-.895-5.461q0-6.168,2.688-9.106t8.284-2.93h8.13v3.967Z" transform="translate(-270.309 -241.287)"/>
    <rect id="Rectangle_2" data-name="Rectangle 2" width="3.89" height="4.048" transform="translate(140.872 33.411)"/>
    <path id="Path_4" data-name="Path 4" d="M419.06,37.01h6.187l9.513,16.7-.234-16.7h5V60.256h-5.68l-9.989-17.585.219,17.585H419.06Z" transform="translate(-258.091 -22.797)"/>
    <path id="Path_5" data-name="Path 5" d="M568.488,284.814a3.936,3.936,0,0,0,3.168-1.359,6.818,6.818,0,0,0,0-7.585,3.948,3.948,0,0,0-3.176-1.348v-3.7h.019a8.989,8.989,0,0,1,6.575,2.412,9.633,9.633,0,0,1,.012,12.842,9.005,9.005,0,0,1-6.586,2.4h-.011Zm-4.324-5.154a5.685,5.685,0,0,0,1.152,3.794,3.917,3.917,0,0,0,3.18,1.359h0v3.656a9.021,9.021,0,0,1-6.586-2.4,9.573,9.573,0,0,1,0-12.835,8.99,8.99,0,0,1,6.579-2.412v3.7h0a3.929,3.929,0,0,0-3.172,1.36,5.748,5.748,0,0,0-1.137,3.779Z" transform="translate(-374.887 -250.723)"/>
    <path id="Path_6" data-name="Path 6" d="M613.77,271.6h7.573a5.62,5.62,0,0,1,3.725.956,4.33,4.33,0,0,1,1.068,3.341v2.85h-4.3v-2.2a1.853,1.853,0,0,0-.357-1.336,2.519,2.519,0,0,0-1.617-.342h-1.582v13.779H613.77Z" transform="translate(-408.353 -251.204)"/>
    <path id="Path_7" data-name="Path 7" d="M662.854,275.094V265.37h-2.719a10.842,10.842,0,0,0-1.152.061v-3.748h3.875V255.5h4.493v23.234h-8.372v-3.683c.253.019.515.031.795.031Zm-3.875-9.662a4.467,4.467,0,0,0-2.73,1.083,5.3,5.3,0,0,0-1.152,3.84,5.167,5.167,0,0,0,1.052,3.668,4.251,4.251,0,0,0,2.823,1.056v3.656h-.284a8.062,8.062,0,0,1-6.122-2.3,8.93,8.93,0,0,1-2.2-6.436,10,10,0,0,1,.457-3.107,8.147,8.147,0,0,1,1.394-2.585,6.229,6.229,0,0,1,2.665-2.016,11.522,11.522,0,0,1,4.086-.611Z" transform="translate(-430.896 -241.287)"/>
    <path id="Path_8" data-name="Path 8" d="M709.5,259.764H704.77V255.54H709.5Zm0,19.006H704.77V261.708H709.5Z" transform="translate(-464.405 -241.311)"/>
    <path id="Path_9" data-name="Path 9" d="M734.965,285h4.793v3.641h-6.11a12.711,12.711,0,0,1-3.813-.48,6.528,6.528,0,0,1-2.6-1.559,8.161,8.161,0,0,1-1.855-2.853,9.517,9.517,0,0,1-.676-3.564,10.157,10.157,0,0,1,.664-3.691,7.761,7.761,0,0,1,1.866-2.873,6.659,6.659,0,0,1,2.635-1.559,12.672,12.672,0,0,1,3.783-.472h6.122v3.687h-4.8c-2.116,0-3.579.384-4.378,1.1s-1.2,2-1.2,3.817a5.98,5.98,0,0,0,.492,2.592,3.84,3.84,0,0,0,1.536,1.655,3.591,3.591,0,0,0,1.175.434A15.748,15.748,0,0,0,734.965,285Z" transform="translate(-476.68 -251.196)"/>
    <path id="Path_10" data-name="Path 10" d="M316.114,331h-3.7a1.4,1.4,0,0,0-.872.223.845.845,0,0,0-.28.707.711.711,0,0,0,.238.584,1.11,1.11,0,0,0,.707.192h1.982a2.642,2.642,0,0,1,1.751.465,2.523,2.523,0,0,1-.081,3.164,2.848,2.848,0,0,1-1.889.518h-3.986V335.58h3.748a1.6,1.6,0,0,0,.9-.188.7.7,0,0,0,.261-.614.768.768,0,0,0-.238-.634,1.352,1.352,0,0,0-.822-.192h-1.77a2.723,2.723,0,0,1-1.8-.488,1.955,1.955,0,0,1-.568-1.536,2.093,2.093,0,0,1,.6-1.655,2.86,2.86,0,0,1,1.92-.522h3.917Z" transform="translate(-221.05 -287.022)"/>
    <path id="Path_11" data-name="Path 11" d="M329.87,334.594h5.3a2.485,2.485,0,0,1,1.659.449,1.867,1.867,0,0,1,.507,1.463v3.314h-1.39v-3.138a1.183,1.183,0,0,0-.173-.768,1.025,1.025,0,0,0-.718-.181h-.768v4.078h-1.409v-4.071h-1.613v4.078h-1.39Z" transform="translate(-233.481 -290)"/>
    <path id="Path_12" data-name="Path 12" d="M354.566,338.785h1.24v-1.079h-1.24V336.68H355.8v-.131a.768.768,0,0,0-.273-.657,1.79,1.79,0,0,0-.956-.188v-1.079h.5a2.335,2.335,0,0,1,1.613.492,1.87,1.87,0,0,1,.542,1.459v3.276h-2.658Zm-.492,0h.492v1.052h-1.052a1.682,1.682,0,0,1-1.2-.384,1.455,1.455,0,0,1-.419-1.118,1.536,1.536,0,0,1,.48-1.279,2.6,2.6,0,0,1,1.6-.384h.588v1.041h-.384a1.237,1.237,0,0,0-.672.131.518.518,0,0,0-.18.453.441.441,0,0,0,.146.384,1.114,1.114,0,0,0,.6.111Zm.492-4.174v1.079h-2.327V334.61Z" transform="translate(-247.044 -290.015)"/>
    <path id="Path_13" data-name="Path 13" d="M368.914,334.595h2.3a1.717,1.717,0,0,1,1.152.292,1.329,1.329,0,0,1,.326,1.025v.872h-1.317v-.672a.591.591,0,0,0-.108-.411.791.791,0,0,0-.5-.1h-.484v4.224H368.91Z" transform="translate(-257.528 -290)"/>
    <path id="Path_14" data-name="Path 14" d="M379.71,331.573h.975V329.68h1.379v1.893h1.459v1.041h-1.459v2.112a1.248,1.248,0,0,0,.2.806.9.9,0,0,0,.691.223h.568V336.8h-1.26a1.536,1.536,0,0,1-1.171-.426,1.674,1.674,0,0,1-.407-1.214v-2.546h-.975Z" transform="translate(-264.181 -286.979)"/>
    <path id="Path_15" data-name="Path 15" d="M393.6,339.826a2.688,2.688,0,0,1-1.962-.664,2.619,2.619,0,0,1-.664-1.947A2.332,2.332,0,0,1,393.6,334.6h2.016v1.091h-1.828a1.682,1.682,0,0,0-1.006.211,1.014,1.014,0,0,0-.28.768h3.115v1.087h-3.1a1.037,1.037,0,0,0,.261.768,1.678,1.678,0,0,0,1.018.207h1.836v1.091Z" transform="translate(-271.111 -290.005)"/>
    <path id="Path_16" data-name="Path 16" d="M405.36,334.595h2.3a1.717,1.717,0,0,1,1.152.292,1.329,1.329,0,0,1,.326,1.025v.872h-1.317v-.672a.572.572,0,0,0-.108-.411.768.768,0,0,0-.5-.1h-.465v4.224h-1.383Z" transform="translate(-279.98 -290)"/>
    <path id="Path_17" data-name="Path 17" d="M430.073,330.894a1.509,1.509,0,0,0-1.34.591,3.488,3.488,0,0,0-.411,1.943,2.747,2.747,0,0,0,.384,1.651,1.678,1.678,0,0,0,1.359.48h2.458v1.24h-2.531a4.916,4.916,0,0,1-1.317-.142,2.688,2.688,0,0,1-1.72-1.621,4.543,4.543,0,0,1-.276-1.671,4.059,4.059,0,0,1,.818-2.792,3.287,3.287,0,0,1,2.538-.895h2.489v1.214Z" transform="translate(-293.11 -286.979)"/>
    <path id="Path_18" data-name="Path 18" d="M446.283,338.632a1.21,1.21,0,0,0,.972-.415,2.1,2.1,0,0,0,0-2.323,1.209,1.209,0,0,0-.975-.415v-1.133h0a2.758,2.758,0,0,1,2.012.737,2.949,2.949,0,0,1,0,3.933,2.746,2.746,0,0,1-2.016.734h0Zm-1.325-1.578a1.763,1.763,0,0,0,.349,1.152,1.2,1.2,0,0,0,.975.415h0v1.118a2.773,2.773,0,0,1-2.016-.734,2.934,2.934,0,0,1,0-3.933,2.761,2.761,0,0,1,2.016-.737v1.133h0a1.206,1.206,0,0,0-.976.419A1.751,1.751,0,0,0,444.958,337.054Z" transform="translate(-303.479 -289.844)"/>
    <path id="Path_19" data-name="Path 19" d="M460.14,334.61h2.6a2.554,2.554,0,0,1,1.678.442,1.882,1.882,0,0,1,.5,1.471v3.314h-1.379V336.68a.73.73,0,0,0-.91-.933h-1.11v4.078H460.14Z" transform="translate(-313.722 -290.015)"/>
    <path id="Path_20" data-name="Path 20" d="M475.252,338.776h2.907a1.029,1.029,0,0,0,.565-.119.441.441,0,0,0,.177-.384.43.43,0,0,0-.181-.384,1.018,1.018,0,0,0-.561-.123h-1.19a2.3,2.3,0,0,1-1.436-.323,1.494,1.494,0,0,1-.384-1.152,1.574,1.574,0,0,1,.449-1.24,2.062,2.062,0,0,1,1.394-.384h2.965v1.091h-2.439a1.816,1.816,0,0,0-.768.1.384.384,0,0,0-.181.384.415.415,0,0,0,.157.357.848.848,0,0,0,.5.115h1.252a1.92,1.92,0,0,1,1.306.384,1.463,1.463,0,0,1,.453,1.152,1.713,1.713,0,0,1-.4,1.183,1.31,1.31,0,0,1-1.029.457h-3.564Z" transform="translate(-322.963 -290.045)"/>
    <path id="Path_21" data-name="Path 21" d="M495.652,339.837h-2.6a2.469,2.469,0,0,1-1.659-.457,1.87,1.87,0,0,1-.511-1.456V334.61h1.375v3.222a.96.96,0,0,0,.184.7,1.052,1.052,0,0,0,.722.177h1.11V334.61h1.383Z" transform="translate(-332.652 -290.015)"/>
    <path id="Path_22" data-name="Path 22" d="M506.54,334.594h5.3a2.485,2.485,0,0,1,1.659.449,1.866,1.866,0,0,1,.511,1.463v3.314h-1.39v-3.138a1.179,1.179,0,0,0-.177-.768,1.025,1.025,0,0,0-.718-.181h-.768v4.078h-1.409v-4.071h-1.613v4.078h-1.39Z" transform="translate(-342.303 -290)"/>
    <path id="Path_23" data-name="Path 23" d="M531.041,339.826a2.688,2.688,0,0,1-1.962-.664,3.184,3.184,0,0,1,0-3.9,2.688,2.688,0,0,1,1.962-.661h2.016v1.091H531.23a1.69,1.69,0,0,0-1.01.211,1,1,0,0,0-.276.768h3.115v1.087h-3.115a1.022,1.022,0,0,0,.261.768,1.678,1.678,0,0,0,1.018.207h1.836v1.091Z" transform="translate(-355.775 -290.005)"/>
    <path id="Path_24" data-name="Path 24" d="M542.8,334.595h2.3a1.717,1.717,0,0,1,1.152.292,1.329,1.329,0,0,1,.326,1.025v.872h-1.317v-.672a.573.573,0,0,0-.108-.411.769.769,0,0,0-.5-.1h-.488v4.224H542.8Z" transform="translate(-364.638 -290)"/>
    <path id="Path_25" data-name="Path 25" d="M554.559,338.776h2.911a1.029,1.029,0,0,0,.565-.119.449.449,0,0,0,.177-.384.438.438,0,0,0-.18-.384,1.018,1.018,0,0,0-.561-.123h-1.19a2.3,2.3,0,0,1-1.436-.323,1.494,1.494,0,0,1-.384-1.152,1.579,1.579,0,0,1,.453-1.24,2.062,2.062,0,0,1,1.394-.384h2.965v1.091h-2.439a1.85,1.85,0,0,0-.768.1.384.384,0,0,0-.177.384.415.415,0,0,0,.157.357.84.84,0,0,0,.5.115h1.248a1.92,1.92,0,0,1,1.31.384,1.463,1.463,0,0,1,.449,1.152,1.728,1.728,0,0,1-.384,1.183,1.31,1.31,0,0,1-1.029.457H554.57Z" transform="translate(-371.815 -290.045)"/>
    <path id="Path_26" data-name="Path 26" d="M581.738,330.978H580.29v-1.3h1.448Zm0,5.822H580.29v-5.227h1.448Z" transform="translate(-387.73 -286.979)"/>
    <path id="Path_27" data-name="Path 27" d="M587.148,334.61h2.6a2.554,2.554,0,0,1,1.678.442,1.882,1.882,0,0,1,.5,1.471v3.314h-1.386V336.68a.73.73,0,0,0-.91-.933h-1.11v4.078H587.14Z" transform="translate(-391.949 -290.015)"/>
    <path id="Path_28" data-name="Path 28" d="M611.32,331.573h.972V329.68h1.383v1.893h1.459v1.041h-1.459v2.112a1.248,1.248,0,0,0,.2.806.9.9,0,0,0,.7.223h.568V336.8h-1.248a1.536,1.536,0,0,1-1.171-.426,1.69,1.69,0,0,1-.407-1.214v-2.546h-.972Z" transform="translate(-406.843 -286.979)"/>
    <path id="Path_29" data-name="Path 29" d="M623.36,329.68h1.371v1.893h1.225a2.485,2.485,0,0,1,1.667.453,1.84,1.84,0,0,1,.518,1.459V336.8h-1.39v-3.157a.768.768,0,0,0-.922-.926h-1.1V336.8H623.36Z" transform="translate(-414.26 -286.979)"/>
    <path id="Path_30" data-name="Path 30" d="M640.777,339.826a2.688,2.688,0,0,1-1.966-.664,3.188,3.188,0,0,1,0-3.9,2.688,2.688,0,0,1,1.963-.661h2.012v1.091h-1.824a1.689,1.689,0,0,0-1.01.211,1.014,1.014,0,0,0-.28.768h3.115v1.087h-3.115a1.037,1.037,0,0,0,.261.768,1.686,1.686,0,0,0,1.021.207h1.832v1.091Z" transform="translate(-423.366 -290.005)"/>
    <path id="Path_31" data-name="Path 31" d="M583.91,111.18H585.8l2.915,5.115-.073-5.115h1.532v7.12h-1.74l-3.061-5.384.069,5.384H583.91Z" transform="translate(-359.632 -68.483)"/>
    <path id="Path_32" data-name="Path 32" d="M684.467,338.632a1.2,1.2,0,0,0,.968-.415,2.1,2.1,0,0,0,0-2.323,1.21,1.21,0,0,0-.972-.415v-1.133h0a2.761,2.761,0,0,1,2.016.737,2.957,2.957,0,0,1,0,3.933,2.734,2.734,0,0,1-2.016.733h0Zm-1.325-1.578a1.763,1.763,0,0,0,.349,1.152,1.2,1.2,0,0,0,.972.415h0v1.118a2.776,2.776,0,0,1-2.02-.734,2.946,2.946,0,0,1,0-3.933,2.765,2.765,0,0,1,2.02-.737v1.133h0a1.194,1.194,0,0,0-.972.419A1.732,1.732,0,0,0,683.142,337.054Z" transform="translate(-450.189 -289.844)"/>
    <path id="Path_33" data-name="Path 33" d="M698.324,334.595h2.3a1.717,1.717,0,0,1,1.152.292,1.328,1.328,0,0,1,.326,1.025v.872h-1.317v-.672a.573.573,0,0,0-.108-.411.769.769,0,0,0-.5-.1H699.7v4.224H698.32Z" transform="translate(-460.432 -290)"/>
    <path id="Path_34" data-name="Path 34" d="M713.357,335.673V332.7h-.833a2.547,2.547,0,0,0-.353.019v-1.152h1.187V329.67h1.375v7.12H712.17v-1.129h.242Zm-1.187-2.957a1.348,1.348,0,0,0-.837.33,1.617,1.617,0,0,0-.349,1.171,1.59,1.59,0,0,0,.319,1.125,1.321,1.321,0,0,0,.868.323v1.129h-.088a2.462,2.462,0,0,1-1.874-.71,2.731,2.731,0,0,1-.676-1.97,3.133,3.133,0,0,1,.142-.952,2.635,2.635,0,0,1,.419-.791,1.9,1.9,0,0,1,.818-.614,3.426,3.426,0,0,1,1.252-.188Z" transform="translate(-467.335 -286.973)"/>
    <path id="Path_35" data-name="Path 35" d="M727.659,330.978H726.2v-1.3h1.459Zm0,5.822H726.2v-5.227h1.459Z" transform="translate(-477.605 -286.979)"/>
    <path id="Path_36" data-name="Path 36" d="M735.464,338.714h1.467v1.121h-1.874a3.818,3.818,0,0,1-1.152-.15,1.989,1.989,0,0,1-.8-.476,2.522,2.522,0,0,1-.568-.876,2.96,2.96,0,0,1-.208-1.091,3.119,3.119,0,0,1,.2-1.129,2.391,2.391,0,0,1,.572-.879,2.053,2.053,0,0,1,.806-.48,3.951,3.951,0,0,1,1.152-.146h1.874v1.129h-1.467a2,2,0,0,0-1.34.338,1.536,1.536,0,0,0-.384,1.152,1.859,1.859,0,0,0,.15.795,1.2,1.2,0,0,0,.465.507,1.118,1.118,0,0,0,.361.131A4.5,4.5,0,0,0,735.464,338.714Z" transform="translate(-481.381 -290.014)"/>
    <rect id="Rectangle_3" data-name="Rectangle 3" width="0.933" height="2.707" transform="translate(256.253 42.855)"/>
    <path id="Path_37" data-name="Path 37" d="M750.738,338.776h2.907a1.01,1.01,0,0,0,.565-.119.441.441,0,0,0,.177-.384.434.434,0,0,0-.177-.384,1.033,1.033,0,0,0-.565-.123h-1.19a2.284,2.284,0,0,1-1.432-.323,1.479,1.479,0,0,1-.384-1.152,1.575,1.575,0,0,1,.449-1.24,2.062,2.062,0,0,1,1.394-.384h2.965v1.091h-2.435a1.827,1.827,0,0,0-.768.1.384.384,0,0,0-.18.384.414.414,0,0,0,.157.357.856.856,0,0,0,.5.115h1.252a1.92,1.92,0,0,1,1.306.384,1.451,1.451,0,0,1,.453,1.152,1.728,1.728,0,0,1-.384,1.183,1.317,1.317,0,0,1-1.033.457h-3.56Z" transform="translate(-492.653 -290.045)"/>
  </g>
</svg>
