<svg xmlns="http://www.w3.org/2000/svg" xmlns:xlink="http://www.w3.org/1999/xlink" width="288.095" height="278.07" viewBox="0 0 288.095 278.07">
  <defs>
    <linearGradient id="linear-gradient" x1="0.5" y1="-0.227" x2="0.5" y2="0.559" gradientUnits="objectBoundingBox">
      <stop offset="0" stop-color="#e5e5e5"/>
      <stop offset="0.476" stop-color="#f3f3f3"/>
      <stop offset="1" stop-color="#fff"/>
    </linearGradient>
    <linearGradient id="linear-gradient-2" x1="0.339" y1="-0.276" x2="0.59" y2="0.731" gradientUnits="objectBoundingBox">
      <stop offset="0" stop-color="#0e2d61"/>
      <stop offset="0.984" stop-color="#204f9e"/>
      <stop offset="1" stop-color="#1d478d"/>
    </linearGradient>
    <linearGradient id="linear-gradient-3" x1="0.344" y1="-0.344" x2="0.622" y2="0.669" gradientUnits="objectBoundingBox">
      <stop offset="0" stop-color="#f2bfad"/>
      <stop offset="1" stop-color="#f2dad4"/>
    </linearGradient>
  </defs>
  <g id="Group_28512" data-name="Group 28512" transform="translate(-1073.453 -450.977)">
    <g id="Group_28508" data-name="Group 28508" transform="translate(1073.453 559.31)">
      <g id="Group_28506" data-name="Group 28506" transform="translate(38.953)">
        <path id="Path_79174" data-name="Path 79174" d="M1237.967,798.535c1.937,2.74.339,6.306-1.589,8.312-2.371,2.467-4.781,2.086-5.878,4.267-1.326,2.635,1.5,4.573.024,7.329-.9,1.693-2.146,1.29-3.944,3.439-2.191,2.618-.043,3.363-1.6,5.278-4.993,6.154-6.993,1.885-10.033,3.5-3.94,2.1-6.576,3.888-8.505,3.469-7.581-1.649-5.246-6.634-8.926-8.554-4.973-2.6-7.4-13.22-3.989-16.964,1.787-1.96,3.554-2.2,3.72-3.831.24-2.356-3.319-3.041-3.68-5.876-.409-3.215,3.856-4.771,3.221-7.487-.619-2.647-5-2.552-5.278-4.443-.426-2.868,8.917-8,18.594-7.684,4.627.152,12.164,1.646,13.418,5.5.724,2.227-1.16,3.663-.1,6.539.772,2.091,2.48,3.261,4.742,4.767C1230.319,797.531,1234.539,793.687,1237.967,798.535Z" transform="translate(-1191.5 -779.279)" fill="#eee"/>
        <path id="Path_79175" data-name="Path 79175" d="M1238.547,832c1.522-.076,2.3,10.074,1.416,11.405s-2.543,2.313-2.653,3.766.538,27.2,1.076,26.826,5-7.12,4.105-8.691a11.3,11.3,0,0,1-1.69-6.053c.209-2.054.211-4.979.786-4.907s.092,5.11.493,6.087.469,1.741,1.043,1.758.587-5.314,1.464-5.22.281,7.95-.021,9.4-1.331,6.475-2.282,8.324-3.841,3.787-3.911,4.417.392,15.623.392,15.623l-7.57.137s2.8-29.563,2.172-30.547-4.573-8.971-5.419-9.787-1.352-5.793-.906-5.866.694,4.783,1.623,4.862,1.428-9.392,2.1-9.308-.653,9.826-.291,10.426,2.474,4.207,3.176,4.13-.386-26.589.216-26.888,1.054-.051,1.424,2.723,1.087,8.835,1.5,8.828a2.272,2.272,0,0,0,1.475-1.529C1238.289,841.317,1237.87,832.038,1238.547,832Z" transform="translate(-1215.203 -814.473)" fill="#bdbdbd"/>
      </g>
      <g id="Group_28507" data-name="Group 28507" transform="translate(225.855 36.735)">
        <path id="Path_79176" data-name="Path 79176" d="M1758.408,901.508c-1.1,1.552-.192,3.57.9,4.706,1.342,1.4,2.706,1.181,3.328,2.415.751,1.492-.847,2.589-.014,4.149.512.959,1.215.73,2.233,1.947,1.24,1.482.024,1.9.9,2.988,2.827,3.484,3.959,1.067,5.681,1.983,2.231,1.188,3.723,2.2,4.815,1.964,4.292-.934,2.97-3.755,5.054-4.843,2.816-1.47,4.191-7.484,2.258-9.6-1.012-1.11-2.012-1.245-2.106-2.169-.136-1.334,1.879-1.722,2.083-3.327.232-1.82-2.183-2.7-1.823-4.239.35-1.5,2.829-1.445,2.988-2.516.241-1.623-5.049-4.531-10.527-4.35-2.62.086-6.887.932-7.6,3.115-.41,1.261.657,2.074.056,3.7-.437,1.184-1.4,1.846-2.685,2.7C1762.738,900.94,1760.348,898.763,1758.408,901.508Z" transform="translate(-1757.91 -890.606)" fill="#eee"/>
        <path id="Path_79177" data-name="Path 79177" d="M1791.622,920.457c-.861-.043-1.3,5.7-.8,6.457s1.44,1.31,1.5,2.133-.3,15.4-.609,15.188-2.828-4.031-2.324-4.92a6.4,6.4,0,0,0,.957-3.427c-.119-1.163-.119-2.819-.445-2.778s-.052,2.893-.279,3.446-.265.986-.591,1-.332-3.008-.829-2.956-.159,4.5.012,5.324a26.924,26.924,0,0,0,1.292,4.713c.538,1.047,2.175,2.145,2.214,2.5s-.222,8.845-.222,8.845l4.286.078s-1.583-16.738-1.23-17.295,2.589-5.079,3.068-5.541.765-3.28.512-3.321-.393,2.707-.919,2.752-.808-5.318-1.19-5.27.37,5.563.165,5.9-1.4,2.382-1.8,2.338.219-15.054-.122-15.223-.6-.029-.806,1.542-.615,5-.851,5a1.287,1.287,0,0,1-.835-.866C1791.769,925.73,1792.006,920.477,1791.622,920.457Z" transform="translate(-1778.033 -910.532)" fill="#bdbdbd"/>
      </g>
      <ellipse id="Ellipse_1012" data-name="Ellipse 1012" cx="144.048" cy="50.996" rx="144.048" ry="50.996" transform="translate(0 67.747)" fill="url(#linear-gradient)"/>
    </g>
    <g id="Group_28509" data-name="Group 28509" transform="translate(1171.794 487.574)">
      <path id="Path_79178" data-name="Path 79178" d="M1522.307,971.475a5.2,5.2,0,0,0-.681,1.967c0,.511-.076,2.46,0,2.686a8.075,8.075,0,0,0,3.254.549,2.7,2.7,0,0,0,1.835-1.173,16.265,16.265,0,0,0,0-3.462C1526.526,971.7,1522.307,971.475,1522.307,971.475Z" transform="translate(-1472.057 -836.32)" fill="#f2dad4"/>
      <path id="Path_79179" data-name="Path 79179" d="M1488.916,973.257a7.753,7.753,0,0,0-.089,2.273,5.481,5.481,0,0,1,.5,1.6c0,.622,4.494.6,4.671.213a5.829,5.829,0,0,0,.167-1.837c-.018-.408.384-1.164.26-1.573s-.64-1.19-1.119-1.3A37.674,37.674,0,0,0,1488.916,973.257Z" transform="translate(-1450.071 -837.09)" fill="#f2dad4"/>
      <path id="Path_79180" data-name="Path 79180" d="M1463.677,775.5c-.912,3.346-1.764,13.871-1.156,18.13s2.251,15.94,2.251,21.111,1.784,13.6,2.63,16.676,2.066,9.861,2.733,10.013a6.675,6.675,0,0,0,3.639.364c1.941-.364,2.487-.849,2.517-1.638s-1.365-9.614-1.577-11.737-1.638-11.009-1.7-12.192,1.153-5.368,1.274-7.825.758-11.252,1.122-12.435,1.243-6.854,1.638-6.885,2.639,6.854,2.972,9.068,2.032,16.62,2.456,17.469-.151,5.914-.425,7.794-.346,16.613-.03,16.978a5.815,5.815,0,0,0,3.059,1.117c1.092,0,2.865-.461,3.131-1.02s-.1-2.6.194-3.593,3.009-11.408,3.153-13.926-.576-12.159-.684-14.533,1.007-9.569,1.259-11.476,1.115-9.856,1.115-11.727-.36-7.59-1.475-8.886S1463.677,775.5,1463.677,775.5Z" transform="translate(-1432.341 -704.961)" fill="#192b59"/>
      <path id="Path_79181" data-name="Path 79181" d="M1598.944,671.6c.455-.31,1.2-.889,1.323-1.292a3.572,3.572,0,0,1,1.111-1.736,19.93,19.93,0,0,1,2.083-.754c.5-.165,1.736-.889,1.964-.992s.961-.238,1.157.155a1.146,1.146,0,0,1-.578,1.374c-.517.2-1.736.589-1.623.858a2.145,2.145,0,0,0,2.2.1c.92-.455,2.511-.858,2.883-1.064a26.7,26.7,0,0,1,3.388-1.322.772.772,0,0,1,.694.386c.126.26.946-.378,1.2.055s-.339.678-.37.812.331.276.339.6-.473.5-1.238.851-4.234,2.536-4.784,2.825a8.116,8.116,0,0,1-3.084,1.019c-1.4.124-3.111.193-3.51.7a13.416,13.416,0,0,1-1.584,1.936c-.248.082-1.832.33-2.217-.62S1598.944,671.6,1598.944,671.6Z" transform="translate(-1523.392 -632.124)" fill="#f2dad4"/>
      <path id="Path_79182" data-name="Path 79182" d="M1387.338,664.231c-.455-.31-1.2-.889-1.323-1.292a3.574,3.574,0,0,0-1.111-1.736,19.928,19.928,0,0,0-2.082-.754c-.5-.165-1.736-.889-1.964-.992s-.961-.238-1.157.155a1.146,1.146,0,0,0,.579,1.374c.517.2,1.736.589,1.622.858a2.144,2.144,0,0,1-2.2.1c-.92-.455-2.511-.858-2.883-1.065a26.749,26.749,0,0,0-3.388-1.322.771.771,0,0,0-.694.386c-.126.26-.946-.378-1.2.055s.339.678.371.812-.331.276-.339.6.473.5,1.238.851,4.234,2.536,4.784,2.825a8.116,8.116,0,0,0,3.084,1.019c1.4.124,3.111.193,3.51.7s.688,1.143.936,1.225,1.831.33,2.216-.619A8.424,8.424,0,0,0,1387.338,664.231Z" transform="translate(-1371.475 -627.188)" fill="#f2dad4"/>
      <path id="Path_79183" data-name="Path 79183" d="M1440.109,628.44c-1.908.229-9.416,1.149-10.736,3.9s-2.491,9.326-3.108,11.177-1.82,6.2-2.344,6.2-9.161-6.693-9.346-6.693.216,1.6-.8,2.653-1.758.771-1.573,1.3,4.873,6.169,6.107,7.8,6.506,5.953,7.833,5.891,5.8-6.663,6.139-6.663-.419,10.518-1,12.745-3.131,11.944-2.442,12.793,8.058,3.369,13.786,3.528,17.336-1.951,17.548-3.436-2.385-9.663-2.385-12.952-.733-14.98-.254-15.053,3.683,8.913,6.813,8.729,9.576-6.7,10.276-7.955,2.062-2.578,1.694-2.762-1.694-1.4-1.694-2.32.111-2.1-.295-1.915-3.057,2.542-4.162,3.167-2.873,1.62-3.094,1.252-3.609-6.74-3.867-8.029-1.952-9.944-3.388-10.717-8.123-3.166-9.281-3.167S1440.109,628.44,1440.109,628.44Z" transform="translate(-1398.743 -606.124)" fill="url(#linear-gradient-2)"/>
      <path id="Path_79184" data-name="Path 79184" d="M1496.477,621.05c0,.892.475,2.12.119,2.378s1.684,5.785,3.665,5.9,5.508-5.389,5.587-6a15.2,15.2,0,0,0-.238-2.893C1505.551,620.356,1496.477,621.05,1496.477,621.05Z" transform="translate(-1455.229 -601.111)" fill="url(#linear-gradient-3)"/>
      <path id="Path_79185" data-name="Path 79185" d="M1486.77,574.434c-.345-2.385-1.1-4.627-.588-6.959s2.185-5.172,5.637-5.531,5.1.958,6.8,3.155,1.48,9.147,1.031,9.6a12.883,12.883,0,0,1-6.661,1.883A11.6,11.6,0,0,1,1486.77,574.434Z" transform="translate(-1448.215 -561.885)" fill="#e64d4e"/>
      <path id="Path_79186" data-name="Path 79186" d="M1488.48,592.5s.687,3.759,1.172,4.164,3.062,2.466,4.7,2.385,5-2.425,5.2-3.759.007-3.93.13-3.881,1.039.148,1.212-1.262.124-3.612-.42-3.636-.816,2.028-1.113,2.028-.333-2.989-.865-3.646-4.062-1.344-4.562-1.344-2.781,2.969-5.718,3.437c0,0,.594,2.344.156,2.375s-1.031-1.875-1.437-1.875-.5,1.937-.312,3.219.906,2,1.156,2S1488.209,592.33,1488.48,592.5Z" transform="translate(-1448.567 -576.404)" fill="#f2dad4"/>
      <path id="Path_79187" data-name="Path 79187" d="M1525.534,983.45c.408.6.347,2.145,1.148,3.625a9.726,9.726,0,0,1,1.45,3.821,3.4,3.4,0,0,1-2.6,3.021c-1.526.242-3.262.332-4.033-.076a2.686,2.686,0,0,1-1.691-2.235,24.641,24.641,0,0,0,0-3.7,6.925,6.925,0,0,1-.363-2.054c0-.559-.136-2.2.181-2.613a4.187,4.187,0,0,1,2.825-1.224A4.693,4.693,0,0,1,1525.534,983.45Z" transform="translate(-1470.6 -843.381)" fill="#252f34"/>
      <path id="Path_79188" data-name="Path 79188" d="M1483.609,983.45c-.408.6-.347,2.145-1.148,3.625a9.732,9.732,0,0,0-1.45,3.821,3.4,3.4,0,0,0,2.6,3.021c1.526.242,3.263.332,4.033-.076a2.686,2.686,0,0,0,1.692-2.235,24.591,24.591,0,0,1,0-3.7,6.933,6.933,0,0,0,.362-2.054c0-.559.136-2.2-.181-2.613a4.185,4.185,0,0,0-2.825-1.224A4.693,4.693,0,0,0,1483.609,983.45Z" transform="translate(-1444.866 -843.381)" fill="#252f34"/>
    </g>
    <g id="Group_28511" data-name="Group 28511" transform="translate(1121.715 450.977)">
      <g id="Group_28510" data-name="Group 28510" transform="translate(0 0)">
        <rect id="Rectangle_4051" data-name="Rectangle 4051" width="67.619" height="53.279" rx="10.291" transform="translate(19.322) rotate(21.264)" fill="#eee"/>
        <path id="fi-rr-file" d="M19.949,5.536,16.465,2.05A6.958,6.958,0,0,0,11.515,0H7A5.006,5.006,0,0,0,2,5V19a5.006,5.006,0,0,0,5,5H17a5.006,5.006,0,0,0,5-5V10.485a6.951,6.951,0,0,0-2.051-4.949ZM18.535,6.95A4.983,4.983,0,0,1,19.316,8H15a1,1,0,0,1-1-1V2.684a5.01,5.01,0,0,1,1.051.78ZM20,19a3,3,0,0,1-3,3H7a3,3,0,0,1-3-3V5A3,3,0,0,1,7,2h4.515c.164,0,.323.032.485.047V7a3,3,0,0,0,3,3h4.953c.015.162.047.32.047.485Z" transform="matrix(0.934, 0.358, -0.358, 0.934, 34.266, 21.584)" fill="#bdbdbd" opacity="0.5"/>
      </g>
    </g>
  </g>
</svg>
