<?xml version="1.0" encoding="iso-8859-1"?>
<!-- Generator: Adobe Illustrator 19.0.0, SVG Export Plug-In . SVG Version: 6.00 Build 0)  -->
<svg version="1.1" id="Capa_1" xmlns="http://www.w3.org/2000/svg" xmlns:xlink="http://www.w3.org/1999/xlink" x="0px" y="0px"
	 viewBox="0 0 57.035 57.035" style="enable-background:new 0 0 57.035 57.035;" xml:space="preserve">
<g>
	<g>
		<path d="M55,51.017v-12v-9c0-0.552-0.448-1-1-1H44c-0.552,0-1,0.448-1,1v9v12h-2v-38h13c0.552,0,1-0.448,1-1v-7
			c0-0.552-0.448-1-1-1H1c-0.552,0-1,0.448-1,1v7c0,0.552,0.448,1,1,1h5v38H1v2h43h10h3.035v-2H55z M45,31.017h8v7h-8V31.017z
			 M2,11.017v-5h51v5H41h-2H8H6H2z M8,13.017h31v38h-5v-1.425c1.763-0.774,3-2.531,3-4.575c0-1.419-0.6-2.694-1.553-3.605
			l1.895-0.948l-0.895-1.789L35,39.399v-1.382c0-2.206-1.798-4-4.009-4H16.009c-2.211,0-4.009,1.794-4.009,4v1.382l-1.447-0.724
			l-0.894,1.789l1.895,0.948C10.601,42.323,10,43.599,10,45.017c0,2.044,1.237,3.801,3,4.575v1.425H8V13.017z M14,40.017v-2
			c0-1.103,0.901-2,2.009-2h14.982c1.107,0,2.009,0.897,2.009,2v2h-1.003H15.003H14z M15.003,42.017h16.994
			c1.656,0,3.003,1.346,3.003,3s-1.347,3-3.003,3H15.003c-1.656,0-3.003-1.346-3.003-3S13.347,42.017,15.003,42.017z M15.003,50.017
			h16.994c0.001,0,0.002,0,0.003,0v1H15v-1C15.001,50.017,15.002,50.017,15.003,50.017z M45,51.017v-11h8v11H45z"/>
		<rect x="15" y="43.017" width="2" height="3"/>
		<rect x="30" y="43.017" width="2" height="3"/>
	</g>
</g>
<g>
</g>
<g>
</g>
<g>
</g>
<g>
</g>
<g>
</g>
<g>
</g>
<g>
</g>
<g>
</g>
<g>
</g>
<g>
</g>
<g>
</g>
<g>
</g>
<g>
</g>
<g>
</g>
<g>
</g>
</svg>
