<svg xmlns="http://www.w3.org/2000/svg" width="150" height="152" viewBox="0 0 150 152">
  <g id="Group_4618" data-name="Group 4618" transform="translate(-873.5 -349)">
    <ellipse id="Ellipse_382" data-name="Ellipse 382" cx="75" cy="76" rx="75" ry="76" transform="translate(873.5 349)" fill="#0f123f"/>
    <g id="smile" transform="translate(883.386 358.887)">
      <ellipse id="Ellipse_383" data-name="Ellipse 383" cx="66" cy="65" rx="66" ry="65" transform="translate(0.114 0.113)" fill="#ffd93b"/>
      <path id="Path_75421" data-name="Path 75421" d="M137.667,318.854a41.826,41.826,0,0,1-40.54-31.507A2.724,2.724,0,1,1,102.406,286a36.381,36.381,0,0,0,70.513,0,2.726,2.726,0,1,1,5.283,1.349A41.817,41.817,0,0,1,137.667,318.854Z" transform="translate(-71.771 -211.732)" fill="#0f123f"/>
      <path id="Path_75422" data-name="Path 75422" d="M173.076,107.65A65.429,65.429,0,0,1,56.72,148.725,65.43,65.43,0,0,0,148.725,56.72,65.356,65.356,0,0,1,173.076,107.65Z" transform="translate(-41.754 -42.58)" fill="#f4c534"/>
      <ellipse id="Ellipse_384" data-name="Ellipse 384" cx="10.027" cy="11.916" rx="10.027" ry="11.916" transform="translate(34.741 44.032)" fill="#0f123f"/>
      <path id="Path_75423" data-name="Path 75423" d="M180.742,198.7a2.161,2.161,0,0,1-2.887-.687,1.868,1.868,0,1,1,2.8-2.29A2.169,2.169,0,0,1,180.742,198.7Z" transform="translate(-131.452 -145.316)" fill="#5a5f63"/>
      <ellipse id="Ellipse_385" data-name="Ellipse 385" cx="10.027" cy="11.916" rx="10.027" ry="11.916" transform="translate(77.01 44.032)" fill="#0f123f"/>
      <path id="Path_75424" data-name="Path 75424" d="M346.1,198.7a2.161,2.161,0,0,1-2.887-.687,1.868,1.868,0,1,1,2.8-2.29A2.169,2.169,0,0,1,346.1,198.7Z" transform="translate(-254.552 -145.316)" fill="#5a5f63"/>
    </g>
  </g>
</svg>
