<svg id="warning" xmlns="http://www.w3.org/2000/svg" width="84.905" height="75.098"
    viewBox="0 0 84.905 75.098">
    <path id="Path_41431"
        d="M83.156,85.843l-30-50.2a12.472,12.472,0,0,0-21.414,0l-30,50.2a12.436,12.436,0,0,0-.1,12.55,12.287,12.287,0,0,0,10.806,6.275H72.449a12.287,12.287,0,0,0,10.806-6.275A12.435,12.435,0,0,0,83.156,85.843Z"
        transform="translate(0 -29.569)" fill="#e50027" />
    <path id="Path_41432"
        d="M296.8,98.393A12.287,12.287,0,0,1,286,104.668H256V29.57a12.433,12.433,0,0,1,10.707,6.076l30,50.2A12.436,12.436,0,0,1,296.8,98.393Z"
        transform="translate(-213.547 -29.57)" fill="#c1001f" />
    <path id="Path_41433"
        d="M37.48,124.737A7.279,7.279,0,0,1,31,120.977a7.423,7.423,0,0,1,.078-7.582L61.048,63.238a7.5,7.5,0,0,1,12.878.034L103.9,113.434a7.406,7.406,0,0,1,.053,7.543,7.279,7.279,0,0,1-6.478,3.759H37.48Z"
        transform="translate(-25.024 -54.618)" fill="#ff4646" />
    <path id="Path_41434"
        d="M286,124.736a7.279,7.279,0,0,0,6.478-3.759,7.407,7.407,0,0,0-.053-7.543L262.448,63.271A7.5,7.5,0,0,0,256,59.6v65.139Z"
        transform="translate(-213.547 -54.617)" fill="#e50027" />
    <path id="Path_41435"
        d="M235.929,127.044v19.92a4.98,4.98,0,0,1-9.96,0v-19.92a4.98,4.98,0,1,1,9.96,0Z"
        transform="translate(-188.496 -106.725)" fill="#e1e4fb" />
    <path id="Path_41436"
        d="M260.98,127.044v19.92a5,5,0,0,1-4.98,4.98v-29.88A5,5,0,0,1,260.98,127.044Z"
        transform="translate(-213.547 -106.725)" fill="#c5c9f7" />
    <path id="Path_41437"
        d="M218.424,332.278a7.47,7.47,0,1,0,7.47,7.47A7.46,7.46,0,0,0,218.424,332.278Z"
        transform="translate(-175.971 -282.08)" fill="#e1e4fb" />
    <path id="Path_41438"
        d="M263.47,339.748a7.46,7.46,0,0,1-7.47,7.47v-14.94A7.46,7.46,0,0,1,263.47,339.748Z"
        transform="translate(-213.547 -282.08)" fill="#c5c9f7" />
</svg>
